<?xml version="1.0"?>
<svg xmlns="http://www.w3.org/2000/svg" xmlns:xlink="http://www.w3.org/1999/xlink" xmlns:svgjs="http://svgjs.com/svgjs" version="1.1" width="512" height="512" x="0" y="0" viewBox="0 0 512.089 512.089" style="enable-background:new 0 0 512 512" xml:space="preserve" class=""><rect width="512.089" height="512.089" rx="20" ry="20" fill="#008fff" shape="rounded"/><g transform="matrix(0.7,0,0,0.7,76.81316299438478,76.81343808174134)">
<g xmlns="http://www.w3.org/2000/svg" transform="translate(1 1)">
	<g>
		<path d="M397.943,353.53l-118.182-98.485l118.182-98.485c11.165-9.304,11.165-26.453,0-35.757L258.307,4.439    c-15.158-12.632-38.172-1.853-38.172,17.879v176.542l-76.635-76.635c-9.089-9.089-23.824-9.089-32.913,0s-9.089,23.824,0,32.913    l99.907,99.907l-99.907,99.907c-9.089,9.089-9.089,23.824,0,32.913s23.824,9.089,32.913,0l76.635-76.635v176.542    c0,19.732,23.013,30.51,38.172,17.879l139.636-116.364C409.109,379.982,409.109,362.834,397.943,353.53z M266.681,72.005    l80.01,66.675l-80.01,66.675V72.005z M266.681,438.083V304.733l80.01,66.675L266.681,438.083z" fill="#ffffff" data-original="#000000" style="" class=""/>
	</g>
</g>
<g xmlns="http://www.w3.org/2000/svg">
</g>
<g xmlns="http://www.w3.org/2000/svg">
</g>
<g xmlns="http://www.w3.org/2000/svg">
</g>
<g xmlns="http://www.w3.org/2000/svg">
</g>
<g xmlns="http://www.w3.org/2000/svg">
</g>
<g xmlns="http://www.w3.org/2000/svg">
</g>
<g xmlns="http://www.w3.org/2000/svg">
</g>
<g xmlns="http://www.w3.org/2000/svg">
</g>
<g xmlns="http://www.w3.org/2000/svg">
</g>
<g xmlns="http://www.w3.org/2000/svg">
</g>
<g xmlns="http://www.w3.org/2000/svg">
</g>
<g xmlns="http://www.w3.org/2000/svg">
</g>
<g xmlns="http://www.w3.org/2000/svg">
</g>
<g xmlns="http://www.w3.org/2000/svg">
</g>
<g xmlns="http://www.w3.org/2000/svg">
</g>
</g></svg>
