<?xml version="1.0"?>
<svg xmlns="http://www.w3.org/2000/svg" xmlns:xlink="http://www.w3.org/1999/xlink" xmlns:svgjs="http://svgjs.com/svgjs" version="1.1" width="512" height="512" x="0" y="0" viewBox="0 0 291.023 291.023" style="enable-background:new 0 0 512 512" xml:space="preserve" class=""><rect width="291.023" height="291.023" rx="20" ry="20" fill="#ffd700" shape="rounded"/><g transform="matrix(0.7,0,0,0.7,43.65354244709016,43.653260564804086)">
<g xmlns="http://www.w3.org/2000/svg">
	<path style="" d="M233.515,102.634l28.914-40.896c7.816-11.047,13.919-25.863,13.63-33.091   c-0.294-7.234-6.402-13.326-13.658-13.63c-7.25-0.294-22.083,5.803-33.129,13.619L188.371,57.56L74.172,3.006   C61.967-2.824,45.911,0.194,38.318,9.767s-5.26,24.275,5.211,32.852l91.289,74.776l-68.249,75.614l-32.194-9.72   c-12.95-3.922-27.456-3.323-32.384,1.316c-4.933,4.645-0.381,15.278,10.166,23.758l29.213,23.486c0,0-1.099,5.107-2.464,11.411   c-1.36,6.298,2.633,10.28,8.926,8.887l11.389-2.529l23.47,29.202c8.485,10.546,19.124,15.104,23.769,10.182   c4.64-4.922,5.238-19.412,1.316-32.368L98.05,224.43l75.603-68.249l74.787,91.295c8.572,10.47,23.279,12.804,32.852,5.205   c9.567-7.593,12.597-23.654,6.761-35.865L233.515,102.634z" fill="#ffffff" data-original="#010002" class=""/>
</g>
<g xmlns="http://www.w3.org/2000/svg">
</g>
<g xmlns="http://www.w3.org/2000/svg">
</g>
<g xmlns="http://www.w3.org/2000/svg">
</g>
<g xmlns="http://www.w3.org/2000/svg">
</g>
<g xmlns="http://www.w3.org/2000/svg">
</g>
<g xmlns="http://www.w3.org/2000/svg">
</g>
<g xmlns="http://www.w3.org/2000/svg">
</g>
<g xmlns="http://www.w3.org/2000/svg">
</g>
<g xmlns="http://www.w3.org/2000/svg">
</g>
<g xmlns="http://www.w3.org/2000/svg">
</g>
<g xmlns="http://www.w3.org/2000/svg">
</g>
<g xmlns="http://www.w3.org/2000/svg">
</g>
<g xmlns="http://www.w3.org/2000/svg">
</g>
<g xmlns="http://www.w3.org/2000/svg">
</g>
<g xmlns="http://www.w3.org/2000/svg">
</g>
</g></svg>
